<svg width="24" height="25" viewBox="0 0 24 25" fill="none" xmlns="http://www.w3.org/2000/svg">
<path fill-rule="evenodd" clip-rule="evenodd" d="M12 8.28271C13.1 8.28271 14 7.38271 14 6.28271C14 5.18271 13.1 4.28271 12 4.28271C10.9 4.28271 10 5.18271 10 6.28271C10 7.38271 10.9 8.28271 12 8.28271ZM12 10.2827C10.9 10.2827 10 11.1827 10 12.2827C10 13.3827 10.9 14.2827 12 14.2827C13.1 14.2827 14 13.3827 14 12.2827C14 11.1827 13.1 10.2827 12 10.2827ZM12 16.2827C10.9 16.2827 10 17.1827 10 18.2827C10 19.3827 10.9 20.2827 12 20.2827C13.1 20.2827 14 19.3827 14 18.2827C14 17.1827 13.1 16.2827 12 16.2827Z" fill="#282839"/>
</svg>
