<svg width="24" height="25" viewBox="0 0 24 25" fill="none" xmlns="http://www.w3.org/2000/svg">
<path fill-rule="evenodd" clip-rule="evenodd" d="M13 3.16248C8.03 3.16248 4 7.19248 4 12.1625H1L4.89 16.0525L4.96 16.1925L9 12.1625H6C6 8.29248 9.13 5.16248 13 5.16248C16.87 5.16248 20 8.29248 20 12.1625C20 16.0325 16.87 19.1625 13 19.1625C11.07 19.1625 9.32 18.3725 8.06 17.1025L6.64 18.5225C8.27 20.1525 10.51 21.1625 13 21.1625C17.97 21.1625 22 17.1325 22 12.1625C22 7.19248 17.97 3.16248 13 3.16248ZM12 8.16248V13.1625L16.28 15.7025L17 14.4925L13.5 12.4125V8.16248H12Z" fill="#282839"/>
</svg>
