<svg width="82" height="60" viewBox="0 0 82 60" fill="none" xmlns="http://www.w3.org/2000/svg">
<g opacity="0.4">
<path d="M82 0H0V60H82V0Z" fill="url(#paint0_linear_10_151)"/>
</g>
<path d="M51.9062 52.4266C51.7929 52.4266 51.7193 52.3699 51.6853 52.2566L49.017 43.8608C49.0057 43.8381 49 43.8098 49 43.7758C49 43.6739 49.0623 43.6229 49.187 43.6229H51.8383C51.9629 43.6229 52.0422 43.6795 52.0762 43.7928L53.1979 48.4666C53.2092 48.5006 53.2262 48.5176 53.2489 48.5176C53.2715 48.5176 53.2885 48.5006 53.2999 48.4666L54.4386 43.7928C54.4726 43.6795 54.5519 43.6229 54.6765 43.6229L57.3108 43.6569C57.3788 43.6569 57.4298 43.6795 57.4638 43.7248C57.4978 43.7588 57.5034 43.8155 57.4808 43.8948L54.8295 52.2566C54.7955 52.3699 54.7218 52.4266 54.6085 52.4266H51.9062Z" fill="#F5F5F5"/>
<path d="M65.5559 45.6963C65.5559 45.753 65.5333 45.804 65.4879 45.8493C65.454 45.8833 65.4086 45.9003 65.352 45.9003H63.8054C63.7487 45.9003 63.7204 45.9286 63.7204 45.9853V49.0784C63.7204 49.7243 63.981 50.0472 64.5022 50.0472H65.131C65.1877 50.0472 65.233 50.0699 65.267 50.1152C65.3123 50.1492 65.335 50.1945 65.335 50.2511V52.2226C65.335 52.3473 65.267 52.4209 65.131 52.4436C64.5872 52.4662 64.1906 52.4776 63.9413 52.4776C62.9556 52.4776 62.2248 52.3246 61.7489 52.0187C61.273 51.7014 61.0294 51.1066 61.0181 50.2341V45.9853C61.0181 45.9286 60.9898 45.9003 60.9331 45.9003H59.9644C59.9077 45.9003 59.8568 45.8833 59.8114 45.8493C59.7774 45.804 59.7604 45.753 59.7604 45.6963V43.8438C59.7604 43.7872 59.7774 43.7418 59.8114 43.7078C59.8568 43.6625 59.9077 43.6399 59.9644 43.6399H60.9331C60.9898 43.6399 61.0181 43.6115 61.0181 43.5549V41.4984C61.0181 41.4418 61.0351 41.3965 61.0691 41.3625C61.1144 41.3171 61.1654 41.2945 61.2221 41.2945H63.5165C63.5731 41.2945 63.6184 41.3171 63.6524 41.3625C63.6977 41.3965 63.7204 41.4418 63.7204 41.4984V43.5549C63.7204 43.6115 63.7487 43.6399 63.8054 43.6399H65.352C65.4086 43.6399 65.454 43.6625 65.4879 43.7078C65.5333 43.7418 65.5559 43.7872 65.5559 43.8438V45.6963Z" fill="#F5F5F5"/>
<path d="M72.2834 52.5625C71.3543 52.5625 70.5385 52.3303 69.836 51.8657C69.1449 51.4012 68.652 50.761 68.3574 49.9452C68.1421 49.4014 68.0345 48.7499 68.0345 47.9907C68.0345 47.2316 68.1421 46.5801 68.3574 46.0362C68.6407 45.2431 69.1335 44.6256 69.836 44.1837C70.5385 43.7305 71.3543 43.5039 72.2834 43.5039C73.2238 43.5039 74.0509 43.7362 74.7647 44.2007C75.4785 44.6653 75.9601 45.2544 76.2093 45.9683C76.2887 46.1722 76.3397 46.3931 76.3623 46.6311C76.3623 46.7557 76.3 46.8294 76.1754 46.852L73.813 47.2089H73.779C73.677 47.2089 73.609 47.1523 73.575 47.039L73.541 46.886C73.5184 46.7954 73.4957 46.7161 73.4731 46.6481C73.3711 46.4328 73.2125 46.2572 72.9972 46.1212C72.7932 45.9853 72.5496 45.9173 72.2664 45.9173C71.6659 45.9173 71.2693 46.1835 71.0767 46.7161C70.9521 47.0333 70.8897 47.4639 70.8897 48.0077C70.8897 48.4949 70.9464 48.9198 71.0597 49.2824C71.275 49.8602 71.6772 50.1492 72.2664 50.1492C72.561 50.1492 72.8159 50.0755 73.0312 49.9282C73.2465 49.7696 73.3994 49.5487 73.4901 49.2654C73.5014 49.2427 73.5071 49.2087 73.5071 49.1634C73.5184 49.1521 73.5241 49.1294 73.5241 49.0954C73.558 48.9595 73.6374 48.9028 73.762 48.9255L76.1414 49.2994C76.2547 49.322 76.3113 49.3844 76.3113 49.4863C76.3113 49.6563 76.2773 49.8432 76.2093 50.0472C75.9374 50.8403 75.4446 51.4578 74.7307 51.8997C74.0283 52.3416 73.2125 52.5625 72.2834 52.5625Z" fill="#F5F5F5"/>
<path d="M15 20H39V39H15V20Z" fill="white"/>
<mask id="mask0_10_151" style="mask-type:alpha" maskUnits="userSpaceOnUse" x="15" y="20" width="24" height="19">
<path d="M15.461 20.442H38.538V38.558H15.461V20.442Z" fill="white"/>
</mask>
<g mask="url(#mask0_10_151)">
<path d="M15.461 20.442H38.538V38.558H15.461V20.442Z" fill="#79D1F2"/>
<path d="M20.769 28.396C18.857 28.396 17.307 26.9123 17.307 25.082C17.307 23.2517 18.857 21.768 20.769 21.768C22.681 21.768 24.231 23.2517 24.231 25.082C24.231 26.9123 22.681 28.396 20.769 28.396Z" fill="#F3EC60"/>
<path d="M15.23 46.954C9.23991 46.954 4.38399 43.9865 4.38399 40.326C4.38399 36.6655 9.23991 33.698 15.23 33.698C21.2201 33.698 26.076 36.6655 26.076 40.326C26.076 43.9865 21.2201 46.954 15.23 46.954Z" fill="url(#paint1_linear_10_151)"/>
<path d="M38.307 50.931C28.748 50.931 20.999 46.2819 20.999 40.547C20.999 34.8121 28.748 30.163 38.307 30.163C47.8659 30.163 55.615 34.8121 55.615 40.547C55.615 46.2819 47.8659 50.931 38.307 50.931Z" fill="url(#paint2_linear_10_151)"/>
</g>
<path fill-rule="evenodd" clip-rule="evenodd" d="M15 20V39H39V20H15ZM16 21H38V38H16V21Z" fill="white"/>
<g filter="url(#filter0_i_10_151)">
<path d="M43 20H68V22H43V20Z" fill="black"/>
</g>
<path d="M43 20H68V22H43V20Z" fill="white" fill-opacity="0.78"/>
<g filter="url(#filter1_i_10_151)">
<path d="M45 32V33H68V32H45ZM49 29V30H68V29H49ZM45 26V27H68V26H45Z" fill="black"/>
</g>
<path d="M45 32V33H68V32H45ZM49 29V30H68V29H49ZM45 26V27H68V26H45Z" fill="white" fill-opacity="0.348"/>
<defs>
<filter id="filter0_i_10_151" x="43" y="20" width="25" height="3" filterUnits="userSpaceOnUse" color-interpolation-filters="sRGB">
<feFlood flood-opacity="0" result="BackgroundImageFix"/>
<feBlend mode="normal" in="SourceGraphic" in2="BackgroundImageFix" result="shape"/>
<feColorMatrix in="SourceAlpha" type="matrix" values="0 0 0 0 0 0 0 0 0 0 0 0 0 0 0 0 0 0 127 0" result="hardAlpha"/>
<feOffset dy="1"/>
<feGaussianBlur stdDeviation="2"/>
<feComposite in2="hardAlpha" operator="arithmetic" k2="-1" k3="1"/>
<feColorMatrix type="matrix" values="0 0 0 0 1 0 0 0 0 1 0 0 0 0 1 0 0 0 0.292013 0"/>
<feBlend mode="normal" in2="shape" result="effect1_innerShadow_10_151"/>
</filter>
<filter id="filter1_i_10_151" x="45" y="26" width="23" height="8" filterUnits="userSpaceOnUse" color-interpolation-filters="sRGB">
<feFlood flood-opacity="0" result="BackgroundImageFix"/>
<feBlend mode="normal" in="SourceGraphic" in2="BackgroundImageFix" result="shape"/>
<feColorMatrix in="SourceAlpha" type="matrix" values="0 0 0 0 0 0 0 0 0 0 0 0 0 0 0 0 0 0 127 0" result="hardAlpha"/>
<feOffset dy="1"/>
<feGaussianBlur stdDeviation="2"/>
<feComposite in2="hardAlpha" operator="arithmetic" k2="-1" k3="1"/>
<feColorMatrix type="matrix" values="0 0 0 0 1 0 0 0 0 1 0 0 0 0 1 0 0 0 0.0995138 0"/>
<feBlend mode="normal" in2="shape" result="effect1_innerShadow_10_151"/>
</filter>
<linearGradient id="paint0_linear_10_151" x1="5.97556e-07" y1="13.938" x2="68.7152" y2="64.2178" gradientUnits="userSpaceOnUse">
<stop stop-color="#00A09D"/>
<stop offset="1" stop-color="#00E2FF"/>
</linearGradient>
<linearGradient id="paint1_linear_10_151" x1="10.2679" y1="39.8632" x2="16.1091" y2="36.2622" gradientUnits="userSpaceOnUse">
<stop stop-color="#008374"/>
<stop offset="1" stop-color="#006A59"/>
</linearGradient>
<linearGradient id="paint2_linear_10_151" x1="24.9739" y1="38.3599" x2="36.8394" y2="43.7673" gradientUnits="userSpaceOnUse">
<stop stop-color="#00AA89"/>
<stop offset="1" stop-color="#009989"/>
</linearGradient>
</defs>
</svg>
