<svg width="24" height="25" viewBox="0 0 24 25" fill="none" xmlns="http://www.w3.org/2000/svg">
<path fill-rule="evenodd" clip-rule="evenodd" d="M2 12.7827C2 7.26271 6.47 2.78271 11.99 2.78271C17.52 2.78271 22 7.26271 22 12.7827C22 18.3027 17.52 22.7827 11.99 22.7827C6.47 22.7827 2 18.3027 2 12.7827ZM4 12.7827C4 17.2027 7.58 20.7827 12 20.7827C16.42 20.7827 20 17.2027 20 12.7827C20 8.36271 16.42 4.78271 12 4.78271C7.58 4.78271 4 8.36271 4 12.7827ZM11 7.78271H12.5V13.0327L17 15.7027L16.25 16.9327L11 13.7827V7.78271Z" fill="black"/>
</svg>
