<svg width="24" height="25" viewBox="0 0 24 25" fill="none" xmlns="http://www.w3.org/2000/svg">
<path fill-rule="evenodd" clip-rule="evenodd" d="M6.62 11.4968C8.06 14.3268 10.38 16.6368 13.21 18.0868L15.41 15.8868C15.68 15.6168 16.08 15.5268 16.43 15.6468C17.55 16.0168 18.76 16.2168 20 16.2168C20.55 16.2168 21 16.6668 21 17.2168V20.7068C21 21.2568 20.55 21.7068 20 21.7068C10.61 21.7068 3 14.0968 3 4.70679C3 4.15679 3.45 3.70679 4 3.70679H7.5C8.05 3.70679 8.5 4.15679 8.5 4.70679C8.5 5.95679 8.7 7.15679 9.07 8.27679C9.18 8.62679 9.1 9.01679 8.82 9.29679L6.62 11.4968Z" fill="#282839"/>
</svg>
