<svg width="22" height="22" viewBox="0 0 22 22" fill="none" xmlns="http://www.w3.org/2000/svg">
<path fill-rule="evenodd" clip-rule="evenodd" d="M13.75 0.916687H8.25V2.75002H13.75V0.916687ZM10.0833 12.8334H11.9167V7.33335H10.0833V12.8334ZM17.4442 6.77419L18.7458 5.47252C18.3517 5.00502 17.9208 4.56502 17.4533 4.18002L16.1517 5.48169C14.7308 4.34502 12.9433 3.66669 11 3.66669C6.44417 3.66669 2.75 7.36085 2.75 11.9167C2.75 16.4725 6.435 20.1667 11 20.1667C15.565 20.1667 19.25 16.4725 19.25 11.9167C19.25 9.97335 18.5717 8.18585 17.4442 6.77419ZM11 18.3334C7.4525 18.3334 4.58333 15.4642 4.58333 11.9167C4.58333 8.36919 7.4525 5.50002 11 5.50002C14.5475 5.50002 17.4167 8.36919 17.4167 11.9167C17.4167 15.4642 14.5475 18.3334 11 18.3334Z" fill="#282839"/>
</svg>
