<svg width="25" height="25" viewBox="0 0 25 25" fill="none" xmlns="http://www.w3.org/2000/svg">
<path d="M12.5 22.2911L12.1348 22.6326L12.5 23.0233L12.8652 22.6326L12.5 22.2911ZM12.5 1.66455C8.20902 1.66455 4.70834 5.02209 4.70834 9.20886H5.70834C5.70834 5.60663 8.7285 2.66455 12.5 2.66455V1.66455ZM4.70834 9.20886C4.70834 10.6344 5.19711 12.1892 5.89407 13.6922C6.59423 15.202 7.52306 16.6985 8.44425 18.0175C9.36648 19.338 10.2877 20.49 10.9779 21.3116C11.3232 21.7227 11.6113 22.0517 11.8135 22.2785C11.9147 22.3919 11.9944 22.4798 12.0491 22.5396C12.0765 22.5696 12.0976 22.5925 12.112 22.6081C12.1192 22.6159 12.1248 22.6219 12.1286 22.626C12.1305 22.628 12.132 22.6296 12.133 22.6307C12.1335 22.6313 12.1339 22.6317 12.1342 22.632C12.1344 22.6322 12.1345 22.6323 12.1346 22.6324C12.1347 22.6325 12.1348 22.6326 12.5 22.2911C12.8652 21.9497 12.8653 21.9497 12.8653 21.9497C12.8652 21.9497 12.8652 21.9496 12.8651 21.9495C12.865 21.9494 12.8647 21.9491 12.8644 21.9487C12.8636 21.9479 12.8625 21.9467 12.8609 21.945C12.8577 21.9415 12.8528 21.9362 12.8462 21.9291C12.833 21.9149 12.8132 21.8934 12.7871 21.8649C12.735 21.8079 12.6581 21.7231 12.5599 21.6129C12.3634 21.3926 12.0818 21.071 11.7435 20.6684C11.0665 19.8625 10.1648 18.7346 9.2641 17.4449C8.36238 16.1538 7.46829 14.7099 6.80127 13.2715C6.13104 11.8262 5.70834 10.425 5.70834 9.20886H4.70834ZM12.5 22.2911C12.8652 22.6326 12.8653 22.6325 12.8654 22.6324C12.8655 22.6323 12.8657 22.6322 12.8658 22.632C12.8661 22.6317 12.8665 22.6313 12.867 22.6307C12.8681 22.6296 12.8695 22.628 12.8714 22.626C12.8753 22.6219 12.8808 22.6159 12.888 22.6081C12.9024 22.5925 12.9235 22.5696 12.9509 22.5396C13.0056 22.4798 13.0854 22.3919 13.1865 22.2785C13.3887 22.0517 13.6768 21.7227 14.0222 21.3116C14.7124 20.49 15.6335 19.338 16.5558 18.0175C17.477 16.6985 18.4058 15.202 19.106 13.6922C19.8029 12.1892 20.2917 10.6344 20.2917 9.20886H19.2917C19.2917 10.425 18.869 11.8262 18.1988 13.2715C17.5317 14.7099 16.6376 16.1538 15.7359 17.4449C14.8352 18.7346 13.9335 19.8625 13.2565 20.6684C12.9182 21.071 12.6367 21.3926 12.4402 21.6129C12.3419 21.7231 12.265 21.8079 12.2129 21.8649C12.1868 21.8934 12.167 21.9149 12.1538 21.9291C12.1473 21.9362 12.1423 21.9415 12.1391 21.945C12.1376 21.9467 12.1364 21.9479 12.1357 21.9487C12.1353 21.9491 12.135 21.9494 12.1349 21.9495C12.1348 21.9496 12.1348 21.9497 12.1347 21.9497C12.1347 21.9497 12.1348 21.9497 12.5 22.2911ZM20.2917 9.20886C20.2917 5.02209 16.791 1.66455 12.5 1.66455V2.66455C16.2715 2.66455 19.2917 5.60663 19.2917 9.20886H20.2917ZM12.5 11.2247C11.3222 11.2247 10.3958 10.3053 10.3958 9.20885H9.39584C9.39584 10.8899 10.8028 12.2247 12.5 12.2247V11.2247ZM10.3958 9.20885C10.3958 8.11239 11.3222 7.19303 12.5 7.19303V6.19303C10.8028 6.19303 9.39584 7.52785 9.39584 9.20885H10.3958ZM12.5 7.19303C13.6778 7.19303 14.6042 8.11239 14.6042 9.20885H15.6042C15.6042 7.52785 14.1972 6.19303 12.5 6.19303V7.19303ZM14.6042 9.20885C14.6042 10.3053 13.6778 11.2247 12.5 11.2247V12.2247C14.1972 12.2247 15.6042 10.8899 15.6042 9.20885H14.6042Z" fill="black"/>
</svg>
