<svg width="25" height="25" viewBox="0 0 25 25" fill="none" xmlns="http://www.w3.org/2000/svg">
<path fill-rule="evenodd" clip-rule="evenodd" d="M19.2533 6.79271C19.0533 6.20271 18.4933 5.78271 17.8333 5.78271H6.83331C6.17331 5.78271 5.62331 6.20271 5.41331 6.79271L3.33331 12.7827V20.7827C3.33331 21.3327 3.78331 21.7827 4.33331 21.7827H5.33331C5.88331 21.7827 6.33331 21.3327 6.33331 20.7827V19.7827H18.3333V20.7827C18.3333 21.3327 18.7833 21.7827 19.3333 21.7827H20.3333C20.8833 21.7827 21.3333 21.3327 21.3333 20.7827V12.7827L19.2533 6.79271ZM6.83331 16.7827C6.00331 16.7827 5.33331 16.1127 5.33331 15.2827C5.33331 14.4527 6.00331 13.7827 6.83331 13.7827C7.66331 13.7827 8.33331 14.4527 8.33331 15.2827C8.33331 16.1127 7.66331 16.7827 6.83331 16.7827ZM17.8333 16.7827C17.0033 16.7827 16.3333 16.1127 16.3333 15.2827C16.3333 14.4527 17.0033 13.7827 17.8333 13.7827C18.6633 13.7827 19.3333 14.4527 19.3333 15.2827C19.3333 16.1127 18.6633 16.7827 17.8333 16.7827ZM5.33331 11.7827L6.83331 7.28271H17.8333L19.3333 11.7827H5.33331Z" fill="black"/>
</svg>
