<svg width="33" height="32" viewBox="0 0 33 32" fill="none" xmlns="http://www.w3.org/2000/svg">
<path d="M16.5 29.3333L16.129 29.6684L16.5 30.0792L16.8711 29.6684L16.5 29.3333ZM16.5 2.16663C11.0639 2.16663 6.66667 6.56382 6.66667 12H7.66667C7.66667 7.1161 11.6161 3.16663 16.5 3.16663V2.16663ZM6.66667 12C6.66667 13.8511 7.28087 15.8841 8.1687 17.8658C9.05947 19.8542 10.2427 21.8281 11.4189 23.5713C12.5959 25.3159 13.772 26.8384 14.6534 27.9244C15.0944 28.4677 15.4621 28.9025 15.7202 29.202C15.8492 29.3517 15.9508 29.4677 16.0204 29.5465C16.0553 29.586 16.0821 29.6161 16.1004 29.6366C16.1095 29.6468 16.1165 29.6546 16.1213 29.6599C16.1237 29.6626 16.1255 29.6646 16.1268 29.6661C16.1274 29.6668 16.1279 29.6673 16.1283 29.6677C16.1285 29.6679 16.1286 29.6681 16.1287 29.6682C16.1289 29.6683 16.129 29.6684 16.5 29.3333C16.8711 28.9981 16.8711 28.9982 16.8711 28.9982C16.871 28.9981 16.871 28.998 16.8709 28.9979C16.8706 28.9977 16.8703 28.9973 16.8698 28.9968C16.8688 28.9957 16.8673 28.994 16.8652 28.9916C16.861 28.987 16.8546 28.9798 16.8461 28.9703C16.829 28.9512 16.8035 28.9225 16.7699 28.8845C16.7029 28.8086 16.604 28.6957 16.4778 28.5493C16.2254 28.2563 15.864 27.8291 15.4299 27.2943C14.5613 26.2241 13.4041 24.7257 12.2478 23.012C11.0906 21.2968 9.94054 19.3749 9.08131 17.457C8.21914 15.5325 7.66667 13.6488 7.66667 12H6.66667ZM16.5 29.3333C16.8711 29.6684 16.8711 29.6683 16.8713 29.6682C16.8714 29.6681 16.8715 29.6679 16.8717 29.6677C16.8721 29.6673 16.8726 29.6668 16.8732 29.6661C16.8745 29.6646 16.8763 29.6626 16.8787 29.6599C16.8835 29.6546 16.8905 29.6468 16.8996 29.6366C16.9179 29.6161 16.9447 29.586 16.9796 29.5465C17.0492 29.4677 17.1508 29.3517 17.2799 29.202C17.5379 28.9025 17.9056 28.4677 18.3466 27.9244C19.228 26.8384 20.4041 25.3159 21.5812 23.5713C22.7573 21.8281 23.9405 19.8542 24.8313 17.8658C25.7191 15.8841 26.3333 13.8511 26.3333 12H25.3333C25.3333 13.6488 24.7809 15.5325 23.9187 17.457C23.0595 19.3749 21.9094 21.2968 20.7522 23.012C19.5959 24.7257 18.4387 26.2241 17.5701 27.2943C17.1361 27.8291 16.7746 28.2563 16.5222 28.5493C16.3961 28.6957 16.2971 28.8086 16.2301 28.8845C16.1965 28.9225 16.171 28.9512 16.1539 28.9703C16.1454 28.9798 16.139 28.987 16.1348 28.9916C16.1327 28.994 16.1312 28.9957 16.1302 28.9968C16.1297 28.9973 16.1294 28.9977 16.1292 28.9979C16.1291 28.998 16.129 28.9981 16.129 28.9982C16.1289 28.9982 16.129 28.9981 16.5 29.3333ZM26.3333 12C26.3333 6.56382 21.9361 2.16663 16.5 2.16663V3.16663C21.3839 3.16663 25.3333 7.1161 25.3333 12H26.3333ZM16.5 14.8333C14.9361 14.8333 13.6667 13.5638 13.6667 12H12.6667C12.6667 14.1161 14.3839 15.8333 16.5 15.8333V14.8333ZM13.6667 12C13.6667 10.4361 14.9361 9.16663 16.5 9.16663V8.16663C14.3839 8.16663 12.6667 9.88382 12.6667 12H13.6667ZM16.5 9.16663C18.0639 9.16663 19.3333 10.4361 19.3333 12H20.3333C20.3333 9.88382 18.6161 8.16663 16.5 8.16663V9.16663ZM19.3333 12C19.3333 13.5638 18.0639 14.8333 16.5 14.8333V15.8333C18.6161 15.8333 20.3333 14.1161 20.3333 12H19.3333Z" fill="#BADB29"/>
</svg>
