<svg width="25" height="25" viewBox="0 0 25 25" fill="none" xmlns="http://www.w3.org/2000/svg">
<path fill-rule="evenodd" clip-rule="evenodd" d="M15.625 1.31018H9.375V3.32284H15.625V1.31018ZM11.4583 14.3925H13.5417V8.35449H11.4583V14.3925ZM19.8229 7.74062L21.3021 6.31164C20.8542 5.79841 20.3646 5.31537 19.8333 4.89271L18.3542 6.3217C16.7396 5.07385 14.7083 4.32917 12.5 4.32917C7.32292 4.32917 3.125 8.38468 3.125 13.3861C3.125 18.3876 7.3125 22.4431 12.5 22.4431C17.6875 22.4431 21.875 18.3876 21.875 13.3861C21.875 11.2527 21.1042 9.29037 19.8229 7.74062ZM12.5 20.4304C8.46875 20.4304 5.20833 17.2806 5.20833 13.3861C5.20833 9.49164 8.46875 6.34183 12.5 6.34183C16.5312 6.34183 19.7917 9.49164 19.7917 13.3861C19.7917 17.2806 16.5312 20.4304 12.5 20.4304Z" fill="#BADB29"/>
</svg>
