<svg width="32" height="33" viewBox="0 0 32 33" fill="none" xmlns="http://www.w3.org/2000/svg">
<rect y="0.782715" width="32" height="32" rx="16" fill="#BADB29"/>
<path d="M16.002 12.385C13.4481 12.385 11.3881 14.4455 11.3881 17C11.3881 19.5545 13.4481 21.615 16.002 21.615C18.5559 21.615 20.616 19.5545 20.616 17C20.616 14.4455 18.5559 12.385 16.002 12.385ZM16.002 20.0003C14.3516 20.0003 13.0023 18.6548 13.0023 17C13.0023 15.3452 14.3476 13.9997 16.002 13.9997C17.6564 13.9997 19.0017 15.3452 19.0017 17C19.0017 18.6548 17.6524 20.0003 16.002 20.0003V20.0003ZM21.8809 12.1963C21.8809 12.7947 21.399 13.2727 20.8047 13.2727C20.2064 13.2727 19.7285 12.7907 19.7285 12.1963C19.7285 11.6018 20.2104 11.1198 20.8047 11.1198C21.399 11.1198 21.8809 11.6018 21.8809 12.1963ZM24.9368 13.2887C24.8685 11.8468 24.5392 10.5696 23.4831 9.51724C22.431 8.46491 21.154 8.13556 19.7124 8.06326C18.2267 7.97891 13.7733 7.97891 12.2876 8.06326C10.85 8.13154 9.57301 8.46089 8.5169 9.51322C7.46079 10.5655 7.13553 11.8428 7.06325 13.2847C6.97892 14.7708 6.97892 19.2251 7.06325 20.7113C7.13151 22.1532 7.46079 23.4304 8.5169 24.4828C9.57301 25.5351 10.846 25.8644 12.2876 25.9367C13.7733 26.0211 18.2267 26.0211 19.7124 25.9367C21.154 25.8685 22.431 25.5391 23.4831 24.4828C24.5352 23.4304 24.8645 22.1532 24.9368 20.7113C25.0211 19.2251 25.0211 14.7749 24.9368 13.2887V13.2887ZM23.0173 22.3058C22.7041 23.093 22.0977 23.6995 21.3066 24.0168C20.122 24.4868 17.3111 24.3783 16.002 24.3783C14.6929 24.3783 11.878 24.4828 10.6974 24.0168C9.91032 23.7036 9.30396 23.0971 8.98673 22.3058C8.5169 21.1209 8.62532 18.3094 8.62532 17C8.62532 15.6906 8.52091 12.875 8.98673 11.6942C9.29994 10.907 9.9063 10.3005 10.6974 9.98315C11.882 9.51322 14.6929 9.62167 16.002 9.62167C17.3111 9.62167 20.126 9.51724 21.3066 9.98315C22.0937 10.2964 22.7001 10.9029 23.0173 11.6942C23.4871 12.8791 23.3787 15.6906 23.3787 17C23.3787 18.3094 23.4871 21.125 23.0173 22.3058Z" fill="black"/>
</svg>
