<svg width="16" height="15" viewBox="0 0 16 15" fill="none" xmlns="http://www.w3.org/2000/svg">
<path fill-rule="evenodd" clip-rule="evenodd" d="M10.6747 8.125C9.89832 8.125 8.68852 8.3375 7.76339 8.75C6.83826 8.33125 5.62846 8.125 4.85213 8.125C3.44825 8.125 0.646973 8.8 0.646973 10.1562V11.875H14.8798V10.1562C14.8798 8.8 12.0785 8.125 10.6747 8.125ZM8.08686 10.9375H1.61739V10.1562C1.61739 9.81875 3.27358 9.0625 4.85213 9.0625C6.43068 9.0625 8.08686 9.81875 8.08686 10.1562V10.9375ZM13.9094 10.9375H9.05729V10.1562C9.05729 9.86875 8.9279 9.61875 8.72087 9.39375C9.29019 9.20625 9.98889 9.0625 10.6747 9.0625C12.2532 9.0625 13.9094 9.81875 13.9094 10.1562V10.9375ZM4.85213 7.5C6.10074 7.5 7.11644 6.51875 7.11644 5.3125C7.11644 4.10625 6.10074 3.125 4.85213 3.125C3.60352 3.125 2.58781 4.10625 2.58781 5.3125C2.58781 6.51875 3.60352 7.5 4.85213 7.5ZM4.85213 4.0625C5.56377 4.0625 6.14602 4.625 6.14602 5.3125C6.14602 6 5.56377 6.5625 4.85213 6.5625C4.14049 6.5625 3.55823 6 3.55823 5.3125C3.55823 4.625 4.14049 4.0625 4.85213 4.0625ZM10.6747 7.5C11.9233 7.5 12.939 6.51875 12.939 5.3125C12.939 4.10625 11.9233 3.125 10.6747 3.125C9.42604 3.125 8.41034 4.10625 8.41034 5.3125C8.41034 6.51875 9.42604 7.5 10.6747 7.5ZM10.6747 4.0625C11.3863 4.0625 11.9685 4.625 11.9685 5.3125C11.9685 6 11.3863 6.5625 10.6747 6.5625C9.96301 6.5625 9.38076 6 9.38076 5.3125C9.38076 4.625 9.96301 4.0625 10.6747 4.0625Z" fill="#282839"/>
</svg>
