<svg width="32" height="33" viewBox="0 0 32 33" fill="none" xmlns="http://www.w3.org/2000/svg">
<rect y="0.782715" width="32" height="32" rx="16" fill="#BADB29"/>
<path d="M8.98301 11.9797C10.1914 11.9797 11.171 11.0001 11.171 9.7917C11.171 8.5833 10.1914 7.6037 8.98301 7.6037C7.77461 7.6037 6.79501 8.5833 6.79501 9.7917C6.79501 11.0001 7.77461 11.9797 8.98301 11.9797Z" fill="#333333"/>
<path d="M13.237 13.6377V25.7767H17.006V19.7737C17.006 18.1897 17.304 16.6557 19.268 16.6557C21.205 16.6557 21.229 18.4667 21.229 19.8737V25.7777H25V19.1207C25 15.8507 24.296 13.3377 20.474 13.3377C18.639 13.3377 17.409 14.3447 16.906 15.2977H16.855V13.6377H13.237ZM7.095 13.6377H10.87V25.7767H7.095V13.6377Z" fill="#333333"/>
</svg>
