<svg width="24" height="25" viewBox="0 0 24 25" fill="none" xmlns="http://www.w3.org/2000/svg">
<path fill-rule="evenodd" clip-rule="evenodd" d="M13 3.60767C8.03 3.60767 4 7.63767 4 12.6077H1L4.89 16.4977L4.96 16.6377L9 12.6077H6C6 8.73767 9.13 5.60767 13 5.60767C16.87 5.60767 20 8.73767 20 12.6077C20 16.4777 16.87 19.6077 13 19.6077C11.07 19.6077 9.32 18.8177 8.06 17.5477L6.64 18.9677C8.27 20.5977 10.51 21.6077 13 21.6077C17.97 21.6077 22 17.5777 22 12.6077C22 7.63767 17.97 3.60767 13 3.60767ZM12 8.60767V13.6077L16.28 16.1477L17 14.9377L13.5 12.8577V8.60767H12Z" fill="#282839"/>
</svg>
