<svg width="32" height="33" viewBox="0 0 32 33" fill="none" xmlns="http://www.w3.org/2000/svg">
<rect y="0.782715" width="32" height="32" rx="16" fill="#BADB29"/>
<path d="M21 8.28271C21 8.1501 20.9473 8.02292 20.8536 7.92915C20.7598 7.83539 20.6326 7.78271 20.5 7.78271H18C16.7411 7.72 15.5086 8.1581 14.5717 9.00129C13.6348 9.84448 13.0698 11.0242 13 12.2827V14.9827H10.5C10.3674 14.9827 10.2402 15.0354 10.1464 15.1292C10.0527 15.2229 10 15.3501 10 15.4827V18.0827C10 18.2153 10.0527 18.3425 10.1464 18.4363C10.2402 18.53 10.3674 18.5827 10.5 18.5827H13V25.2827C13 25.4153 13.0527 25.5425 13.1464 25.6363C13.2402 25.73 13.3674 25.7827 13.5 25.7827H16.5C16.6326 25.7827 16.7598 25.73 16.8536 25.6363C16.9473 25.5425 17 25.4153 17 25.2827V18.5827H19.62C19.7312 18.5843 19.8397 18.5488 19.9285 18.4818C20.0172 18.4148 20.0811 18.3201 20.11 18.2127L20.83 15.6127C20.8499 15.5388 20.8526 15.4614 20.8378 15.3863C20.8231 15.3112 20.7913 15.2405 20.7449 15.1797C20.6985 15.1188 20.6388 15.0694 20.5704 15.0353C20.5019 15.0011 20.4265 14.9831 20.35 14.9827H17V12.2827C17.0249 12.0352 17.1411 11.8058 17.326 11.6394C17.5109 11.473 17.7512 11.3815 18 11.3827H20.5C20.6326 11.3827 20.7598 11.33 20.8536 11.2363C20.9473 11.1425 21 11.0153 21 10.8827V8.28271Z" fill="#333333"/>
</svg>
