<svg width="16" height="22" viewBox="0 0 16 22" fill="none" xmlns="http://www.w3.org/2000/svg">
<path fill-rule="evenodd" clip-rule="evenodd" d="M14 7.93457H13V5.93457C13 3.17457 10.76 0.93457 8 0.93457C5.24 0.93457 3 3.17457 3 5.93457V7.93457H2C0.9 7.93457 0 8.83457 0 9.93457V19.9346C0 21.0346 0.9 21.9346 2 21.9346H14C15.1 21.9346 16 21.0346 16 19.9346V9.93457C16 8.83457 15.1 7.93457 14 7.93457ZM8 16.9346C6.9 16.9346 6 16.0346 6 14.9346C6 13.8346 6.9 12.9346 8 12.9346C9.1 12.9346 10 13.8346 10 14.9346C10 16.0346 9.1 16.9346 8 16.9346ZM11.1 7.93457H4.9V5.93457C4.9 4.22457 6.29 2.83457 8 2.83457C9.71 2.83457 11.1 4.22457 11.1 5.93457V7.93457Z" fill="#BADB29"/>
</svg>
