<svg width="54" height="54" viewBox="0 0 54 54" fill="none" xmlns="http://www.w3.org/2000/svg">
<path fill-rule="evenodd" clip-rule="evenodd" d="M24.0833 41.6488C24.0833 43.2529 25.3958 44.5654 27 44.5654C28.6042 44.5654 29.9167 43.2529 29.9167 41.6488C29.9167 40.0446 28.6042 38.7321 27 38.7321C25.3958 38.7321 24.0833 40.0446 24.0833 41.6488ZM24.0833 0.81543V12.4821H29.9167V6.8821C39.8042 8.31126 47.4167 16.7696 47.4167 27.0654C47.4167 38.3529 38.2875 47.4821 27 47.4821C15.7125 47.4821 6.58333 38.3529 6.58333 27.0654C6.58333 22.1654 8.30417 17.6738 11.1917 14.1738L27 29.9821L31.1125 25.8696L11.2792 6.03626V6.0946C4.89167 10.8779 0.75 18.4613 0.75 27.0654C0.75 41.5613 12.475 53.3154 27 53.3154C41.4958 53.3154 53.25 41.5613 53.25 27.0654C53.25 12.5696 41.4958 0.81543 27 0.81543H24.0833ZM44.5 27.0654C44.5 25.4613 43.1875 24.1488 41.5833 24.1488C39.9792 24.1488 38.6667 25.4613 38.6667 27.0654C38.6667 28.6696 39.9792 29.9821 41.5833 29.9821C43.1875 29.9821 44.5 28.6696 44.5 27.0654ZM9.5 27.0654C9.5 28.6696 10.8125 29.9821 12.4167 29.9821C14.0208 29.9821 15.3333 28.6696 15.3333 27.0654C15.3333 25.4613 14.0208 24.1488 12.4167 24.1488C10.8125 24.1488 9.5 25.4613 9.5 27.0654Z" fill="#282839"/>
</svg>
