<svg width="54" height="48" viewBox="0 0 54 48" fill="none" xmlns="http://www.w3.org/2000/svg">
<path fill-rule="evenodd" clip-rule="evenodd" d="M47.1833 3.59464C46.6 1.8738 44.9667 0.648804 43.0417 0.648804H10.9583C9.03333 0.648804 7.42917 1.8738 6.81667 3.59464L0.75 21.0655V44.3988C0.75 46.003 2.0625 47.3155 3.66667 47.3155H6.58333C8.1875 47.3155 9.5 46.003 9.5 44.3988V41.4821H44.5V44.3988C44.5 46.003 45.8125 47.3155 47.4167 47.3155H50.3333C51.9375 47.3155 53.25 46.003 53.25 44.3988V21.0655L47.1833 3.59464ZM10.9583 32.7321C8.5375 32.7321 6.58333 30.778 6.58333 28.3571C6.58333 25.9363 8.5375 23.9821 10.9583 23.9821C13.3792 23.9821 15.3333 25.9363 15.3333 28.3571C15.3333 30.778 13.3792 32.7321 10.9583 32.7321ZM43.0417 32.7321C40.6208 32.7321 38.6667 30.778 38.6667 28.3571C38.6667 25.9363 40.6208 23.9821 43.0417 23.9821C45.4625 23.9821 47.4167 25.9363 47.4167 28.3571C47.4167 30.778 45.4625 32.7321 43.0417 32.7321ZM6.58333 18.1488L10.9583 5.0238H43.0417L47.4167 18.1488H6.58333Z" fill="#282839"/>
</svg>
