<?xml version="1.0" standalone="no"?>
<!DOCTYPE svg PUBLIC "-//W3C//DTD SVG 20010904//EN"
 "http://www.w3.org/TR/2001/REC-SVG-20010904/DTD/svg10.dtd">
<svg version="1.0" xmlns="http://www.w3.org/2000/svg"
 width="50" height="50" viewBox="0 0 407.000000 642.000000"
 preserveAspectRatio="xMidYMid meet" >

<g transform="translate(0.000000,642.000000) scale(0.100000,-0.100000)"
 stroke="none">
<path d="M1410 6410 c-83 -10 -202 -50 -304 -101 -302 -153 -515 -446 -566
-779 -7 -46 -14 -298 -17 -647 l-6 -572 -51 -17 c-220 -71 -386 -251 -446
-482 -26 -99 -24 -124 10 -133 14 -4 129 -7 256 -8 l232 -1 6 -1257 c7 -1440
10 -1561 50 -1678 78 -228 229 -433 407 -551 90 -59 235 -127 334 -156 80 -23
81 -23 725 -23 l645 0 85 29 c370 123 605 353 726 711 27 77 28 90 35 380 4
165 8 795 8 1400 1 605 4 1110 7 1123 l6 22 259 0 259 0 -6 43 c-26 186 -114
357 -233 455 -65 54 -111 80 -204 117 l-82 31 -6 600 c-5 500 -8 611 -22 669
-90 393 -348 670 -747 801 l-85 28 -605 2 c-333 1 -634 -1 -670 -6z m780
-1700 c102 -5 223 -15 270 -21 228 -30 481 -100 657 -184 86 -41 94 -46 88
-67 -36 -117 -249 -755 -254 -760 -3 -4 -35 -3 -71 2 -439 65 -1369 62 -1735
-6 l-31 -5 -127 388 c-70 213 -127 392 -127 396 0 12 193 101 281 130 163 54
369 96 591 122 145 16 230 17 458 5z m-790 -2847 c134 -14 252 -18 625 -17
451 0 515 3 857 40 55 7 56 6 72 -25 9 -17 70 -191 135 -385 112 -332 118
-355 102 -370 -32 -29 -209 -105 -323 -140 -216 -65 -377 -91 -646 -108 -478
-28 -960 49 -1262 203 -41 21 -81 42 -89 47 -11 8 11 84 115 397 l129 387 60
-6 c33 -3 134 -13 225 -23z"/>
</g>
</svg>
