<svg id="Layer_1" data-name="Layer 1" xmlns="http://www.w3.org/2000/svg" viewBox="0 0 76 138.79"><defs><style>.cls-1{fill:#fff;}</style></defs><title>icon-EVTC 022</title><path d="M52.3,19.12A19.43,19.43,0,0,0,46.62,21,19.78,19.78,0,0,0,36,35.56c-.13.86-.26,5.57-.32,12.09l-.11,10.69-1,.32a12.67,12.67,0,0,0-8.33,9c-.49,1.85-.45,2.32.19,2.48.26.07,2.41.13,4.78.15l4.33,0,.11,23.49c.13,26.9.19,29.17.93,31.35a20.54,20.54,0,0,0,7.6,10.29,27.39,27.39,0,0,0,6.24,2.92c1.49.43,1.51.43,13.55.43H76.12l1.59-.54c6.91-2.3,11.3-6.6,13.56-13.28.5-1.44.52-1.68.65-7.1.07-3.08.15-14.85.15-26.16s.07-20.74.13-21l.11-.41H102l-.11-.8A13.64,13.64,0,0,0,97.53,61a12.08,12.08,0,0,0-3.81-2.19l-1.53-.58L92.08,47c-.09-9.34-.15-11.42-.41-12.5-1.68-7.34-6.5-12.52-14-15L76.12,19l-11.3,0C58.6,19,53,19,52.3,19.12ZM66.87,50.88c1.91.09,4.17.28,5,.39a44.08,44.08,0,0,1,12.28,3.44c1.61.77,1.76.86,1.64,1.25-.67,2.19-4.65,14.11-4.75,14.2a3.45,3.45,0,0,1-1.33,0c-8.2-1.21-25.58-1.16-32.42.11l-.58.09L44.4,63.08c-1.31-4-2.37-7.32-2.37-7.4a26.59,26.59,0,0,1,5.25-2.43,57.53,57.53,0,0,1,11-2.28A44.48,44.48,0,0,1,66.87,50.88ZM52.11,104.07a103.86,103.86,0,0,0,11.68.32,108.27,108.27,0,0,0,16-.75c1-.13,1-.11,1.35.47.17.32,1.31,3.57,2.52,7.19,2.09,6.2,2.2,6.63,1.91,6.91a27.79,27.79,0,0,1-6,2.62,47.7,47.7,0,0,1-12.07,2c-8.93.52-17.94-.92-23.58-3.79-.77-.39-1.51-.78-1.66-.88s.21-1.57,2.15-7.42l2.41-7.23,1.12.11C48.53,103.7,50.41,103.88,52.11,104.07Z" transform="translate(-26 0)"/><rect class="cls-1" x="16" width="45" height="45" rx="10" ry="10"/><path d="M72,1.87H57a4.69,4.69,0,0,0-4.69,4.69V38.44A4.69,4.69,0,0,0,57,43.12H72a4.69,4.69,0,0,0,4.69-4.69V6.56A4.69,4.69,0,0,0,72,1.87ZM64.5,41.25a2.81,2.81,0,1,1,2.81-2.81A2.81,2.81,0,0,1,64.5,41.25Zm8.44-7.5H56.06V7.5H72.94Z" transform="translate(-26 0)"/></svg>
