<svg width="54" height="63" viewBox="0 0 54 63" fill="none" xmlns="http://www.w3.org/2000/svg">
<path fill-rule="evenodd" clip-rule="evenodd" d="M35.75 0.982056H18.25V6.81539H35.75V0.982056ZM24.0833 38.8987H29.9167V21.3987H24.0833V38.8987ZM47.5042 19.6196L51.6458 15.4779C50.3917 13.9904 49.0208 12.5904 47.5333 11.3654L43.3917 15.5071C38.8708 11.8904 33.1833 9.73206 27 9.73206C12.5042 9.73206 0.75 21.4862 0.75 35.9821C0.75 50.4779 12.475 62.2321 27 62.2321C41.525 62.2321 53.25 50.4779 53.25 35.9821C53.25 29.7987 51.0917 24.1112 47.5042 19.6196ZM27 56.3987C15.7125 56.3987 6.58333 47.2696 6.58333 35.9821C6.58333 24.6946 15.7125 15.5654 27 15.5654C38.2875 15.5654 47.4167 24.6946 47.4167 35.9821C47.4167 47.2696 38.2875 56.3987 27 56.3987Z" fill="#282839"/>
</svg>
